<?xml version="1.0" encoding="utf-8"?>
<!-- Generator: Adobe Illustrator 19.2.1, SVG Export Plug-In . SVG Version: 6.00 Build 0)  -->
<svg version="1.1" id="Layer_1" xmlns="http://www.w3.org/2000/svg" xmlns:xlink="http://www.w3.org/1999/xlink" x="0px" y="0px"
	 width="1619.1px" height="346.2px" viewBox="0 0 1619.1 346.2" style="enable-background:new 0 0 1619.1 346.2;"
	 xml:space="preserve">
<style type="text/css">
	.st0{fill:none;stroke:#000000;stroke-width:1.02;stroke-miterlimit:10;}
	.st1{display:none;}
	.st2{display:inline;fill:none;}
	.st3{display:inline;fill:#FFFFFF;}
	.st4{font-family:'TimesNewRomanPSMT';}
	.st5{font-size:16px;}
	.st6{font-family:'OpusText';}
	.st7{fill:none;}
	.st8{font-size:33px;}
	.st9{display:inline;fill:#010101;}
	.st10{display:inline;}
	.st11{fill:none;stroke:#000000;stroke-width:3;stroke-miterlimit:10;}
	.st12{font-size:52px;}
</style>
<g id="White_keys_4_">
	<g id="White_keys">
		<line class="st0" x1="280.7" y1="0.5" x2="280.7" y2="193.5"/>
		<line class="st0" x1="0.5" y1="0.5" x2="0.5" y2="193.5"/>
		<rect x="0.6" y="0.5" class="st0" width="31.1" height="193"/>
		<rect x="31.7" y="0.5" class="st0" width="31.1" height="193"/>
		<rect x="62.8" y="0.5" class="st0" width="31.1" height="193"/>
		<rect x="93.9" y="0.5" class="st0" width="31.1" height="193"/>
		<rect x="125" y="0.5" class="st0" width="31.1" height="193"/>
		<rect x="280.6" y="0.5" class="st0" width="31.1" height="193"/>
		<rect x="311.7" y="0.5" class="st0" width="31.1" height="193"/>
		<rect x="342.8" y="0.5" class="st0" width="31.1" height="193"/>
		<rect x="156.2" y="0.5" class="st0" width="31.1" height="193"/>
		<rect x="187.2" y="0.5" class="st0" width="31.1" height="193"/>
		<rect x="218.4" y="0.5" class="st0" width="31.1" height="193"/>
		<rect x="249.5" y="0.5" class="st0" width="31.1" height="193"/>
	</g>
	<g id="White_keys_1_">
		<line class="st0" x1="716.3" y1="0.5" x2="716.3" y2="193.5"/>
		<line class="st0" x1="373.9" y1="193.5" x2="373.9" y2="0.5"/>
		<rect x="373.9" y="0.5" class="st0" width="31.1" height="193"/>
		<rect x="405" y="0.5" class="st0" width="31.1" height="193"/>
		<rect x="436.2" y="0.5" class="st0" width="31.1" height="193"/>
		<rect x="467.3" y="0.5" class="st0" width="31.1" height="193"/>
		<rect x="498.4" y="0.5" class="st0" width="31.1" height="193"/>
		<rect x="529.5" y="0.5" class="st0" width="31.1" height="193"/>
		<rect x="560.6" y="0.5" class="st0" width="31.1" height="193"/>
		<rect x="716.2" y="0.5" class="st0" width="31.1" height="193"/>
		<rect x="747.3" y="0.5" class="st0" width="31.1" height="193"/>
		<rect x="778.4" y="0.5" class="st0" width="31.1" height="193"/>
		<rect x="591.8" y="0.5" class="st0" width="31.1" height="193"/>
		<rect x="622.8" y="0.5" class="st0" width="31.1" height="193"/>
		<rect x="654" y="0.5" class="st0" width="31.1" height="193"/>
		<rect x="685.1" y="0.5" class="st0" width="31.1" height="193"/>
	</g>
	<g id="White_keys_3_">
		<line class="st0" x1="1152" y1="0.5" x2="1152" y2="193.5"/>
		<line class="st0" x1="809.6" y1="193.5" x2="809.6" y2="0.5"/>
		<rect x="809.6" y="0.5" class="st0" width="31.1" height="193"/>
		<rect x="840.7" y="0.5" class="st0" width="31.1" height="193"/>
		<rect x="871.9" y="0.5" class="st0" width="31.1" height="193"/>
		<rect x="903" y="0.5" class="st0" width="31.1" height="193"/>
		<rect x="934.1" y="0.5" class="st0" width="31.1" height="193"/>
		<rect x="965.2" y="0.5" class="st0" width="31.1" height="193"/>
		<rect x="996.3" y="0.5" class="st0" width="31.1" height="193"/>
		<rect x="1151.9" y="0.5" class="st0" width="31.1" height="193"/>
		<rect x="1183" y="0.5" class="st0" width="31.1" height="193"/>
		<rect x="1214.1" y="0.5" class="st0" width="31.1" height="193"/>
		<rect x="1027.5" y="0.5" class="st0" width="31.1" height="193"/>
		<rect x="1058.5" y="0.5" class="st0" width="31.1" height="193"/>
		<rect x="1089.7" y="0.5" class="st0" width="31.1" height="193"/>
		<rect x="1120.8" y="0.5" class="st0" width="31.1" height="193"/>
	</g>
	<g id="White_keys_2_">
		<line class="st0" x1="1587.6" y1="0.5" x2="1587.6" y2="193.5"/>
		<line class="st0" x1="1245.2" y1="193.5" x2="1245.2" y2="0.5"/>
		<rect x="1245.2" y="0.5" class="st0" width="31.1" height="193"/>
		<rect x="1276.3" y="0.5" class="st0" width="31.1" height="193"/>
		<rect x="1307.5" y="0.5" class="st0" width="31.1" height="193"/>
		<rect x="1338.6" y="0.5" class="st0" width="31.1" height="193"/>
		<rect x="1369.7" y="0.5" class="st0" width="31.1" height="193"/>
		<rect x="1400.8" y="0.5" class="st0" width="31.1" height="193"/>
		<rect x="1431.9" y="0.5" class="st0" width="31.1" height="193"/>
		<rect x="1587.5" y="0.5" class="st0" width="31.1" height="193"/>
		<rect x="1463.1" y="0.5" class="st0" width="31.1" height="193"/>
		<rect x="1494.1" y="0.5" class="st0" width="31.1" height="193"/>
		<rect x="1525.3" y="0.5" class="st0" width="31.1" height="193"/>
		<rect x="1556.4" y="0.5" class="st0" width="31.1" height="193"/>
	</g>
</g>
<g id="Black_keys_4_">
	<g id="Black_keys_8_">
		<rect x="25.5" y="0.1" width="18.7" height="128.2"/>
		<rect x="81.7" y="0.1" width="18.7" height="128.2"/>
		<rect x="118.6" y="0.1" width="18.7" height="128.2"/>
		<rect x="172.6" y="0.1" width="18.7" height="128.2"/>
		<rect x="208" y="0.1" width="18.7" height="128.2"/>
		<rect x="299.4" y="0.1" width="18.7" height="128.2"/>
		<rect x="336.3" y="0.1" width="18.7" height="128.2"/>
		<rect x="243.3" y="0.1" width="18.7" height="128.2"/>
	</g>
	<g id="Black_keys_7_">
		<rect x="390.4" y="0.1" width="18.7" height="128.2"/>
		<rect x="425.7" y="0.1" width="18.7" height="128.2"/>
		<rect x="461.1" y="0.1" width="18.7" height="128.2"/>
		<rect x="517.3" y="0.1" width="18.7" height="128.2"/>
		<rect x="554.2" y="0.1" width="18.7" height="128.2"/>
		<rect x="608.2" y="0.1" width="18.7" height="128.2"/>
		<rect x="643.6" y="0.1" width="18.7" height="128.2"/>
		<rect x="735" y="0.1" width="18.7" height="128.2"/>
		<rect x="771.9" y="0.1" width="18.7" height="128.2"/>
		<rect x="678.9" y="0.1" width="18.7" height="128.2"/>
	</g>
	<g id="Black_keys_6_">
		<rect x="826.1" y="0.1" width="18.7" height="128.2"/>
		<rect x="861.4" y="0.1" width="18.7" height="128.2"/>
		<rect x="896.8" y="0.1" width="18.7" height="128.2"/>
		<rect x="953" y="0.1" width="18.7" height="128.2"/>
		<rect x="989.9" y="0.1" width="18.7" height="128.2"/>
		<rect x="1043.9" y="0.1" width="18.7" height="128.2"/>
		<rect x="1079.3" y="0.1" width="18.7" height="128.2"/>
		<rect x="1170.7" y="0.1" width="18.7" height="128.2"/>
		<rect x="1207.6" y="0.1" width="18.7" height="128.2"/>
		<rect x="1114.6" y="0.1" width="18.7" height="128.2"/>
	</g>
	<g id="Black_keys_5_">
		<rect x="1261.7" y="0.1" width="18.7" height="128.2"/>
		<rect x="1297" y="0.1" width="18.7" height="128.2"/>
		<rect x="1332.4" y="0.1" width="18.7" height="128.2"/>
		<rect x="1388.6" y="0.1" width="18.7" height="128.2"/>
		<rect x="1425.5" y="0.1" width="18.7" height="128.2"/>
		<rect x="1479.5" y="0.1" width="18.7" height="128.2"/>
		<rect x="1514.9" y="0.1" width="18.7" height="128.2"/>
		<rect x="1550.2" y="0.1" width="18.7" height="128.2"/>
	</g>
</g>
<g id="Black_key_names" class="st1">
	<rect x="243.3" y="80.3" class="st2" width="18.7" height="39"/>
	<text transform="matrix(1 0 0 1 244.0125 96.32)" class="st3 st4 st5">A</text>
	<text transform="matrix(1 0 0 1 255.6125 96.32)" class="st3 st6 st5">#</text>
	<text transform="matrix(1 0 0 1 244.8125 115.52)" class="st3 st4 st5">B</text>
	<text transform="matrix(1 0 0 1 255.4125 115.52)" class="st3 st6 st5">b</text>
	<rect x="208" y="80.3" class="st2" width="18.7" height="39"/>
	<text transform="matrix(1 0 0 1 208.7125 96.32)" class="st3 st4 st5">G</text>
	<text transform="matrix(1 0 0 1 220.3125 96.32)" class="st3 st6 st5">#</text>
	<text transform="matrix(1 0 0 1 209.0125 115.52)" class="st3 st4 st5">A</text>
	<text transform="matrix(1 0 0 1 220.6125 115.52)" class="st3 st6 st5">b</text>
	<rect x="172.6" y="80.3" class="st2" width="18.7" height="39"/>
	<text transform="matrix(1 0 0 1 174.6406 96.32)" class="st3 st4 st5">F</text>
	<text transform="matrix(1 0 0 1 183.5406 96.32)" class="st3 st6 st5">#</text>
	<text transform="matrix(1 0 0 1 173.6406 115.52)" class="st3 st4 st5">G</text>
	<text transform="matrix(1 0 0 1 185.1406 115.52)" class="st3 st6 st5">b</text>
	<rect x="118.6" y="80.3" class="st2" width="18.7" height="39"/>
	<text transform="matrix(1 0 0 1 119.3125 96.32)" class="st3 st4 st5">D</text>
	<text transform="matrix(1 0 0 1 130.9125 96.32)" class="st3 st6 st5">#</text>
	<text transform="matrix(1 0 0 1 120.5125 115.52)" class="st3 st4 st5">E</text>
	<text transform="matrix(1 0 0 1 130.3125 115.52)" class="st3 st6 st5">b</text>
	<rect x="81.7" y="80.3" class="st2" width="18.7" height="39"/>
	<text transform="matrix(1 0 0 1 82.8539 96.32)" class="st3 st4 st5">C</text>
	<text transform="matrix(1 0 0 1 93.5539 96.32)" class="st3 st6 st5">#</text>
	<text transform="matrix(1 0 0 1 82.7539 115.52)" class="st3 st4 st5">D</text>
	<text transform="matrix(1 0 0 1 94.2539 115.52)" class="st3 st6 st5">b</text>
	<rect x="25.5" y="80.3" class="st2" width="18.7" height="39"/>
	<text transform="matrix(1 0 0 1 26.2125 96.32)" class="st3 st4 st5">A</text>
	<text transform="matrix(1 0 0 1 37.8125 96.32)" class="st3 st6 st5">#</text>
	<text transform="matrix(1 0 0 1 27.0125 115.52)" class="st3 st4 st5">B</text>
	<text transform="matrix(1 0 0 1 37.6125 115.52)" class="st3 st6 st5">b</text>
	<rect x="336.3" y="80.3" class="st2" width="18.7" height="39"/>
	<text transform="matrix(1 0 0 1 337.0375 96.32)" class="st3 st4 st5">D</text>
	<text transform="matrix(1 0 0 1 348.6375 96.32)" class="st3 st6 st5">#</text>
	<text transform="matrix(1 0 0 1 338.2375 115.52)" class="st3 st4 st5">E</text>
	<text transform="matrix(1 0 0 1 348.0375 115.52)" class="st3 st6 st5">b</text>
	<rect x="299.4" y="80.3" class="st2" width="18.7" height="39"/>
	<text transform="matrix(1 0 0 1 300.5789 96.32)" class="st3 st4 st5">C</text>
	<text transform="matrix(1 0 0 1 311.2789 96.32)" class="st3 st6 st5">#</text>
	<text transform="matrix(1 0 0 1 300.4789 115.52)" class="st3 st4 st5">D</text>
	<text transform="matrix(1 0 0 1 311.9789 115.52)" class="st3 st6 st5">b</text>
	<rect x="118.6" y="80.3" class="st2" width="18.7" height="39"/>
	<text transform="matrix(1 0 0 1 119.3125 96.32)" class="st3 st4 st5">D</text>
	<text transform="matrix(1 0 0 1 130.9125 96.32)" class="st3 st6 st5">#</text>
	<text transform="matrix(1 0 0 1 120.5125 115.52)" class="st3 st4 st5">E</text>
	<text transform="matrix(1 0 0 1 130.3125 115.52)" class="st3 st6 st5">b</text>
	<rect x="81.7" y="80.3" class="st2" width="18.7" height="39"/>
	<text transform="matrix(1 0 0 1 82.8539 96.32)" class="st3 st4 st5">C</text>
	<text transform="matrix(1 0 0 1 93.5539 96.32)" class="st3 st6 st5">#</text>
	<text transform="matrix(1 0 0 1 82.7539 115.52)" class="st3 st4 st5">D</text>
	<text transform="matrix(1 0 0 1 94.2539 115.52)" class="st3 st6 st5">b</text>
	<rect x="678.9" y="80.3" class="st2" width="18.7" height="39"/>
	<text transform="matrix(1 0 0 1 679.6125 96.32)" class="st3 st4 st5">A</text>
	<text transform="matrix(1 0 0 1 691.2125 96.32)" class="st3 st6 st5">#</text>
	<text transform="matrix(1 0 0 1 680.4125 115.52)" class="st3 st4 st5">B</text>
	<text transform="matrix(1 0 0 1 691.0125 115.52)" class="st3 st6 st5">b</text>
	<rect x="643.6" y="80.3" class="st2" width="18.7" height="39"/>
	<text transform="matrix(1 0 0 1 644.3125 96.32)" class="st3 st4 st5">G</text>
	<text transform="matrix(1 0 0 1 655.9125 96.32)" class="st3 st6 st5">#</text>
	<text transform="matrix(1 0 0 1 644.6125 115.52)" class="st3 st4 st5">A</text>
	<text transform="matrix(1 0 0 1 656.2125 115.52)" class="st3 st6 st5">b</text>
	<rect x="608.2" y="80.3" class="st2" width="18.7" height="39"/>
	<text transform="matrix(1 0 0 1 610.2411 96.32)" class="st3 st4 st5">F</text>
	<text transform="matrix(1 0 0 1 619.1411 96.32)" class="st3 st6 st5">#</text>
	<text transform="matrix(1 0 0 1 609.2411 115.52)" class="st3 st4 st5">G</text>
	<text transform="matrix(1 0 0 1 620.7411 115.52)" class="st3 st6 st5">b</text>
	<rect x="554.2" y="80.3" class="st2" width="18.7" height="39"/>
	<text transform="matrix(1 0 0 1 554.913 96.32)" class="st3 st4 st5">D</text>
	<text transform="matrix(1 0 0 1 566.513 96.32)" class="st3 st6 st5">#</text>
	<text transform="matrix(1 0 0 1 556.113 115.52)" class="st3 st4 st5">E</text>
	<text transform="matrix(1 0 0 1 565.913 115.52)" class="st3 st6 st5">b</text>
	<rect x="517.3" y="80.3" class="st2" width="18.7" height="39"/>
	<text transform="matrix(1 0 0 1 518.4544 96.32)" class="st3 st4 st5">C</text>
	<text transform="matrix(1 0 0 1 529.1544 96.32)" class="st3 st6 st5">#</text>
	<text transform="matrix(1 0 0 1 518.3544 115.52)" class="st3 st4 st5">D</text>
	<text transform="matrix(1 0 0 1 529.8544 115.52)" class="st3 st6 st5">b</text>
	<rect x="461.1" y="80.3" class="st2" width="18.7" height="39"/>
	<text transform="matrix(1 0 0 1 461.8125 96.32)" class="st3 st4 st5">A</text>
	<text transform="matrix(1 0 0 1 473.4125 96.32)" class="st3 st6 st5">#</text>
	<text transform="matrix(1 0 0 1 462.6125 115.52)" class="st3 st4 st5">B</text>
	<text transform="matrix(1 0 0 1 473.2125 115.52)" class="st3 st6 st5">b</text>
	<rect x="425.8" y="80.3" class="st2" width="18.7" height="39"/>
	<text transform="matrix(1 0 0 1 426.513 96.32)" class="st3 st4 st5">G</text>
	<text transform="matrix(1 0 0 1 438.113 96.32)" class="st3 st6 st5">#</text>
	<text transform="matrix(1 0 0 1 426.813 115.52)" class="st3 st4 st5">A</text>
	<text transform="matrix(1 0 0 1 438.413 115.52)" class="st3 st6 st5">b</text>
	<rect x="390.4" y="80.3" class="st2" width="18.7" height="39"/>
	<text transform="matrix(1 0 0 1 392.4406 96.32)" class="st3 st4 st5">F</text>
	<text transform="matrix(1 0 0 1 401.3406 96.32)" class="st3 st6 st5">#</text>
	<text transform="matrix(1 0 0 1 391.8406 115.52)" class="st3 st4 st5">B</text>
	<text transform="matrix(1 0 0 1 402.5406 115.52)" class="st3 st6 st5">b</text>
	<rect x="771.9" y="80.3" class="st2" width="18.7" height="39"/>
	<text transform="matrix(1 0 0 1 772.6381 96.32)" class="st3 st4 st5">D</text>
	<text transform="matrix(1 0 0 1 784.2381 96.32)" class="st3 st6 st5">#</text>
	<text transform="matrix(1 0 0 1 773.8381 115.52)" class="st3 st4 st5">E</text>
	<text transform="matrix(1 0 0 1 783.6381 115.52)" class="st3 st6 st5">b</text>
	<rect x="735" y="80.3" class="st2" width="18.7" height="39"/>
	<text transform="matrix(1 0 0 1 736.1789 96.32)" class="st3 st4 st5">C</text>
	<text transform="matrix(1 0 0 1 746.8789 96.32)" class="st3 st6 st5">#</text>
	<text transform="matrix(1 0 0 1 736.0789 115.52)" class="st3 st4 st5">D</text>
	<text transform="matrix(1 0 0 1 747.5789 115.52)" class="st3 st6 st5">b</text>
	<rect x="554.2" y="80.3" class="st2" width="18.7" height="39"/>
	<text transform="matrix(1 0 0 1 554.913 96.32)" class="st3 st4 st5">D</text>
	<text transform="matrix(1 0 0 1 566.513 96.32)" class="st3 st6 st5">#</text>
	<text transform="matrix(1 0 0 1 556.113 115.52)" class="st3 st4 st5">E</text>
	<text transform="matrix(1 0 0 1 565.913 115.52)" class="st3 st6 st5">b</text>
	<rect x="517.3" y="80.3" class="st2" width="18.7" height="39"/>
	<text transform="matrix(1 0 0 1 518.4544 96.32)" class="st3 st4 st5">C</text>
	<text transform="matrix(1 0 0 1 529.1544 96.32)" class="st3 st6 st5">#</text>
	<text transform="matrix(1 0 0 1 518.3544 115.52)" class="st3 st4 st5">D</text>
	<text transform="matrix(1 0 0 1 529.8544 115.52)" class="st3 st6 st5">b</text>
	<rect x="1114.6" y="80.3" class="st2" width="18.7" height="39"/>
	<text transform="matrix(1 0 0 1 1115.2876 96.32)" class="st3 st4 st5">A</text>
	<text transform="matrix(1 0 0 1 1126.8876 96.32)" class="st3 st6 st5">#</text>
	<text transform="matrix(1 0 0 1 1116.0876 115.52)" class="st3 st4 st5">B</text>
	<text transform="matrix(1 0 0 1 1126.6876 115.52)" class="st3 st6 st5">b</text>
	<rect x="1079.3" y="80.3" class="st2" width="18.7" height="39"/>
	<text transform="matrix(1 0 0 1 1079.9875 96.32)" class="st3 st4 st5">G</text>
	<text transform="matrix(1 0 0 1 1091.5875 96.32)" class="st3 st6 st5">#</text>
	<text transform="matrix(1 0 0 1 1080.2876 115.52)" class="st3 st4 st5">A</text>
	<text transform="matrix(1 0 0 1 1091.8876 115.52)" class="st3 st6 st5">b</text>
	<rect x="1043.9" y="80.3" class="st2" width="18.7" height="39"/>
	<text transform="matrix(1 0 0 1 1045.9156 96.32)" class="st3 st4 st5">F</text>
	<text transform="matrix(1 0 0 1 1054.8157 96.32)" class="st3 st6 st5">#</text>
	<text transform="matrix(1 0 0 1 1044.9156 115.52)" class="st3 st4 st5">G</text>
	<text transform="matrix(1 0 0 1 1056.4156 115.52)" class="st3 st6 st5">b</text>
	<rect x="989.9" y="80.3" class="st2" width="18.7" height="39"/>
	<text transform="matrix(1 0 0 1 990.5876 96.32)" class="st3 st4 st5">D</text>
	<text transform="matrix(1 0 0 1 1002.1876 96.32)" class="st3 st6 st5">#</text>
	<text transform="matrix(1 0 0 1 991.7876 115.52)" class="st3 st4 st5">E</text>
	<text transform="matrix(1 0 0 1 1001.5876 115.52)" class="st3 st6 st5">b</text>
	<rect x="953" y="80.3" class="st2" width="18.7" height="39"/>
	<text transform="matrix(1 0 0 1 954.1288 96.32)" class="st3 st4 st5">C</text>
	<text transform="matrix(1 0 0 1 964.8288 96.32)" class="st3 st6 st5">#</text>
	<text transform="matrix(1 0 0 1 954.0288 115.52)" class="st3 st4 st5">D</text>
	<text transform="matrix(1 0 0 1 965.5288 115.52)" class="st3 st6 st5">b</text>
	<rect x="896.8" y="80.3" class="st2" width="18.7" height="39"/>
	<text transform="matrix(1 0 0 1 897.4875 96.32)" class="st3 st4 st5">A</text>
	<text transform="matrix(1 0 0 1 909.0875 96.32)" class="st3 st6 st5">#</text>
	<text transform="matrix(1 0 0 1 898.2875 115.52)" class="st3 st4 st5">B</text>
	<text transform="matrix(1 0 0 1 908.8875 115.52)" class="st3 st6 st5">b</text>
	<rect x="861.5" y="80.3" class="st2" width="18.7" height="39"/>
	<text transform="matrix(1 0 0 1 862.1876 96.32)" class="st3 st4 st5">G</text>
	<text transform="matrix(1 0 0 1 873.7876 96.32)" class="st3 st6 st5">#</text>
	<text transform="matrix(1 0 0 1 862.4876 115.52)" class="st3 st4 st5">A</text>
	<text transform="matrix(1 0 0 1 874.0876 115.52)" class="st3 st6 st5">b</text>
	<rect x="826.1" y="80.3" class="st2" width="18.7" height="39"/>
	<text transform="matrix(1 0 0 1 828.1157 96.32)" class="st3 st4 st5">F</text>
	<text transform="matrix(1 0 0 1 837.0157 96.32)" class="st3 st6 st5">#</text>
	<text transform="matrix(1 0 0 1 827.5157 115.52)" class="st3 st4 st5">B</text>
	<text transform="matrix(1 0 0 1 838.2157 115.52)" class="st3 st6 st5">b</text>
	<rect x="1207.6" y="80.3" class="st2" width="18.7" height="39"/>
	<text transform="matrix(1 0 0 1 1208.3126 96.32)" class="st3 st4 st5">D</text>
	<text transform="matrix(1 0 0 1 1219.9126 96.32)" class="st3 st6 st5">#</text>
	<text transform="matrix(1 0 0 1 1209.5126 115.52)" class="st3 st4 st5">E</text>
	<text transform="matrix(1 0 0 1 1219.3126 115.52)" class="st3 st6 st5">b</text>
	<rect x="1170.7" y="80.3" class="st2" width="18.7" height="39"/>
	<text transform="matrix(1 0 0 1 1171.854 96.32)" class="st3 st4 st5">C</text>
	<text transform="matrix(1 0 0 1 1182.554 96.32)" class="st3 st6 st5">#</text>
	<text transform="matrix(1 0 0 1 1171.754 115.52)" class="st3 st4 st5">D</text>
	<text transform="matrix(1 0 0 1 1183.254 115.52)" class="st3 st6 st5">b</text>
	<rect x="989.9" y="80.3" class="st2" width="18.7" height="39"/>
	<text transform="matrix(1 0 0 1 990.5876 96.32)" class="st3 st4 st5">D</text>
	<text transform="matrix(1 0 0 1 1002.1876 96.32)" class="st3 st6 st5">#</text>
	<text transform="matrix(1 0 0 1 991.7876 115.52)" class="st3 st4 st5">E</text>
	<text transform="matrix(1 0 0 1 1001.5876 115.52)" class="st3 st6 st5">b</text>
	<rect x="953" y="80.3" class="st2" width="18.7" height="39"/>
	<text transform="matrix(1 0 0 1 954.1288 96.32)" class="st3 st4 st5">C</text>
	<text transform="matrix(1 0 0 1 964.8288 96.32)" class="st3 st6 st5">#</text>
	<text transform="matrix(1 0 0 1 954.0288 115.52)" class="st3 st4 st5">D</text>
	<text transform="matrix(1 0 0 1 965.5288 115.52)" class="st3 st6 st5">b</text>
	<rect x="1550.2" y="80.3" class="st2" width="18.7" height="39"/>
	<text transform="matrix(1 0 0 1 1550.8876 96.32)" class="st3 st4 st5">A</text>
	<text transform="matrix(1 0 0 1 1562.4875 96.32)" class="st3 st6 st5">#</text>
	<text transform="matrix(1 0 0 1 1551.6876 115.52)" class="st3 st4 st5">B</text>
	<text transform="matrix(1 0 0 1 1562.2876 115.52)" class="st3 st6 st5">b</text>
	<rect x="1514.9" y="80.3" class="st2" width="18.7" height="39"/>
	<text transform="matrix(1 0 0 1 1515.5876 96.32)" class="st3 st4 st5">G</text>
	<text transform="matrix(1 0 0 1 1527.1876 96.32)" class="st3 st6 st5">#</text>
	<text transform="matrix(1 0 0 1 1515.8877 115.52)" class="st3 st4 st5">A</text>
	<text transform="matrix(1 0 0 1 1527.4877 115.52)" class="st3 st6 st5">b</text>
	<rect x="1479.5" y="80.3" class="st2" width="18.7" height="39"/>
	<text transform="matrix(1 0 0 1 1481.5162 96.32)" class="st3 st4 st5">F</text>
	<text transform="matrix(1 0 0 1 1490.4163 96.32)" class="st3 st6 st5">#</text>
	<text transform="matrix(1 0 0 1 1480.5162 115.52)" class="st3 st4 st5">G</text>
	<text transform="matrix(1 0 0 1 1492.0162 115.52)" class="st3 st6 st5">b</text>
	<rect x="1425.5" y="80.3" class="st2" width="18.7" height="39"/>
	<text transform="matrix(1 0 0 1 1426.1881 96.32)" class="st3 st4 st5">D</text>
	<text transform="matrix(1 0 0 1 1437.7881 96.32)" class="st3 st6 st5">#</text>
	<text transform="matrix(1 0 0 1 1427.3881 115.52)" class="st3 st4 st5">E</text>
	<text transform="matrix(1 0 0 1 1437.1881 115.52)" class="st3 st6 st5">b</text>
	<rect x="1388.6" y="80.3" class="st2" width="18.7" height="39"/>
	<text transform="matrix(1 0 0 1 1389.7295 96.32)" class="st3 st4 st5">C</text>
	<text transform="matrix(1 0 0 1 1400.4294 96.32)" class="st3 st6 st5">#</text>
	<text transform="matrix(1 0 0 1 1389.6295 115.52)" class="st3 st4 st5">D</text>
	<text transform="matrix(1 0 0 1 1401.1295 115.52)" class="st3 st6 st5">b</text>
	<rect x="1332.4" y="80.3" class="st2" width="18.7" height="39"/>
	<text transform="matrix(1 0 0 1 1333.0876 96.32)" class="st3 st4 st5">A</text>
	<text transform="matrix(1 0 0 1 1344.6876 96.32)" class="st3 st6 st5">#</text>
	<text transform="matrix(1 0 0 1 1333.8877 115.52)" class="st3 st4 st5">B</text>
	<text transform="matrix(1 0 0 1 1344.4877 115.52)" class="st3 st6 st5">b</text>
	<rect x="1297.1" y="80.3" class="st2" width="18.7" height="39"/>
	<text transform="matrix(1 0 0 1 1297.7881 96.32)" class="st3 st4 st5">G</text>
	<text transform="matrix(1 0 0 1 1309.3881 96.32)" class="st3 st6 st5">#</text>
	<text transform="matrix(1 0 0 1 1298.0881 115.52)" class="st3 st4 st5">A</text>
	<text transform="matrix(1 0 0 1 1309.6881 115.52)" class="st3 st6 st5">b</text>
	<rect x="1261.7" y="80.3" class="st2" width="18.7" height="39"/>
	<text transform="matrix(1 0 0 1 1263.7157 96.32)" class="st3 st4 st5">F</text>
	<text transform="matrix(1 0 0 1 1272.6157 96.32)" class="st3 st6 st5">#</text>
	<text transform="matrix(1 0 0 1 1263.1157 115.52)" class="st3 st4 st5">B</text>
	<text transform="matrix(1 0 0 1 1273.8157 115.52)" class="st3 st6 st5">b</text>
	<rect x="1425.5" y="80.3" class="st2" width="18.7" height="39"/>
	<text transform="matrix(1 0 0 1 1426.1881 96.32)" class="st3 st4 st5">D</text>
	<text transform="matrix(1 0 0 1 1437.7881 96.32)" class="st3 st6 st5">#</text>
	<text transform="matrix(1 0 0 1 1427.3881 115.52)" class="st3 st4 st5">E</text>
	<text transform="matrix(1 0 0 1 1437.1881 115.52)" class="st3 st6 st5">b</text>
	<rect x="1388.6" y="80.3" class="st2" width="18.7" height="39"/>
	<text transform="matrix(1 0 0 1 1389.7295 96.32)" class="st3 st4 st5">C</text>
	<text transform="matrix(1 0 0 1 1400.4294 96.32)" class="st3 st6 st5">#</text>
	<text transform="matrix(1 0 0 1 1389.6295 115.52)" class="st3 st4 st5">D</text>
	<text transform="matrix(1 0 0 1 1401.1295 115.52)" class="st3 st6 st5">b</text>
</g>
<g id="White_key_names_4_">
	<g id="White_key_names_8_">
		<rect x="31.7" y="162" class="st7" width="31.1" height="31.5"/>
		<text transform="matrix(1 0 0 1 36.2643 184.9546)" class="st4 st8">B</text>
		<rect x="62.8" y="162" class="st7" width="31.1" height="31.5"/>
		<text transform="matrix(1 0 0 1 67.3643 184.9546)" class="st4 st8">C</text>
		<rect x="0.6" y="162" class="st7" width="31.1" height="31.5"/>
		<text transform="matrix(1 0 0 1 4.2542 184.9546)" class="st4 st8">A</text>
		<rect x="187.4" y="162" class="st7" width="31.1" height="31.5"/>
		<text transform="matrix(1 0 0 1 191.0042 184.9546)" class="st4 st8">G</text>
		<rect x="218.5" y="162" class="st7" width="31.1" height="31.5"/>
		<text transform="matrix(1 0 0 1 222.1042 184.9546)" class="st4 st8">A</text>
		<rect x="125.2" y="162" class="st7" width="31.1" height="31.5"/>
		<text transform="matrix(1 0 0 1 130.6411 184.9546)" class="st4 st8">E</text>
		<rect x="156.3" y="162" class="st7" width="31.1" height="31.5"/>
		<text transform="matrix(1 0 0 1 162.6434 184.9546)" class="st4 st8">F</text>
		<rect x="94" y="162" class="st7" width="31.1" height="31.5"/>
		<text transform="matrix(1 0 0 1 97.6042 184.9546)" class="st4 st8">D</text>
		<rect x="249.5" y="162" class="st7" width="31.1" height="31.5"/>
		<text transform="matrix(1 0 0 1 254.0644 184.9546)" class="st4 st8">B</text>
		<rect x="280.5" y="162" class="st7" width="31.1" height="31.5"/>
		<text transform="matrix(1 0 0 1 285.0893 184.9546)" class="st4 st8">C</text>
		<rect x="342.9" y="162" class="st7" width="31.1" height="31.5"/>
		<text transform="matrix(1 0 0 1 348.3661 184.9546)" class="st4 st8">E</text>
		<rect x="311.7" y="162" class="st7" width="31.1" height="31.5"/>
		<text transform="matrix(1 0 0 1 315.3292 184.9546)" class="st4 st8">D</text>
	</g>
	<g id="White_key_names_7_">
		<rect x="467.3" y="162" class="st7" width="31.1" height="31.5"/>
		<text transform="matrix(1 0 0 1 471.8643 184.9546)" class="st4 st8">B</text>
		<rect x="498.4" y="162" class="st7" width="31.1" height="31.5"/>
		<text transform="matrix(1 0 0 1 502.9643 184.9546)" class="st4 st8">C</text>
		<rect x="405.1" y="162" class="st7" width="31.1" height="31.5"/>
		<text transform="matrix(1 0 0 1 408.7542 184.9546)" class="st4 st8">G</text>
		<rect x="436.2" y="162" class="st7" width="31.1" height="31.5"/>
		<text transform="matrix(1 0 0 1 439.8542 184.9546)" class="st4 st8">A</text>
		<rect x="373.9" y="162" class="st7" width="31.1" height="31.5"/>
		<text transform="matrix(1 0 0 1 380.2934 184.9546)" class="st4 st8">F</text>
		<rect x="623" y="162" class="st7" width="31.1" height="31.5"/>
		<text transform="matrix(1 0 0 1 626.6042 184.9546)" class="st4 st8">G</text>
		<rect x="654.1" y="162" class="st7" width="31.1" height="31.5"/>
		<text transform="matrix(1 0 0 1 657.7042 184.9546)" class="st4 st8">A</text>
		<rect x="560.8" y="162" class="st7" width="31.1" height="31.5"/>
		<text transform="matrix(1 0 0 1 566.2411 184.9546)" class="st4 st8">E</text>
		<rect x="591.9" y="162" class="st7" width="31.1" height="31.5"/>
		<text transform="matrix(1 0 0 1 598.2435 184.9546)" class="st4 st8">F</text>
		<rect x="529.6" y="162" class="st7" width="31.1" height="31.5"/>
		<text transform="matrix(1 0 0 1 533.2042 184.9546)" class="st4 st8">D</text>
		<rect x="685.1" y="162" class="st7" width="31.1" height="31.5"/>
		<text transform="matrix(1 0 0 1 689.6648 184.9546)" class="st4 st8">B</text>
		<rect x="716.1" y="162" class="st7" width="31.1" height="31.5"/>
		<text transform="matrix(1 0 0 1 720.6899 184.9546)" class="st4 st8">C</text>
		<rect x="778.5" y="162" class="st7" width="31.1" height="31.5"/>
		<text transform="matrix(1 0 0 1 783.9661 184.9546)" class="st4 st8">E</text>
		<rect x="747.3" y="162" class="st7" width="31.1" height="31.5"/>
		<text transform="matrix(1 0 0 1 750.9292 184.9546)" class="st4 st8">D</text>
	</g>
	<g id="White_key_names_6_">
		<rect x="903" y="162" class="st7" width="31.1" height="31.5"/>
		<text transform="matrix(1 0 0 1 907.5394 184.9546)" class="st4 st8">B</text>
		<rect x="934.1" y="162" class="st7" width="31.1" height="31.5"/>
		<text transform="matrix(1 0 0 1 938.6393 184.9546)" class="st4 st8">C</text>
		<rect x="840.8" y="162" class="st7" width="31.1" height="31.5"/>
		<text transform="matrix(1 0 0 1 844.4291 184.9546)" class="st4 st8">G</text>
		<rect x="871.9" y="162" class="st7" width="31.1" height="31.5"/>
		<text transform="matrix(1 0 0 1 875.5292 184.9546)" class="st4 st8">A</text>
		<rect x="809.6" y="162" class="st7" width="31.1" height="31.5"/>
		<text transform="matrix(1 0 0 1 815.9684 184.9546)" class="st4 st8">F</text>
		<rect x="1058.6" y="162" class="st7" width="31.1" height="31.5"/>
		<text transform="matrix(1 0 0 1 1062.2793 184.9546)" class="st4 st8">G</text>
		<rect x="1089.7" y="162" class="st7" width="31.1" height="31.5"/>
		<text transform="matrix(1 0 0 1 1093.3793 184.9546)" class="st4 st8">A</text>
		<rect x="996.4" y="162" class="st7" width="31.1" height="31.5"/>
		<text transform="matrix(1 0 0 1 1001.9162 184.9546)" class="st4 st8">E</text>
		<rect x="1027.5" y="162" class="st7" width="31.1" height="31.5"/>
		<text transform="matrix(1 0 0 1 1033.9183 184.9546)" class="st4 st8">F</text>
		<rect x="965.2" y="162" class="st7" width="31.1" height="31.5"/>
		<text transform="matrix(1 0 0 1 968.8792 184.9546)" class="st4 st8">D</text>
		<rect x="1120.8" y="162" class="st7" width="31.1" height="31.5"/>
		<text transform="matrix(1 0 0 1 1125.3395 184.9546)" class="st4 st8">B</text>
		<rect x="1151.8" y="162" class="st7" width="31.1" height="31.5"/>
		<text transform="matrix(1 0 0 1 1156.3645 184.9546)" class="st4 st8">C</text>
		<rect x="1214.2" y="162" class="st7" width="31.1" height="31.5"/>
		<text transform="matrix(1 0 0 1 1219.6412 184.9546)" class="st4 st8">E</text>
		<rect x="1183" y="162" class="st7" width="31.1" height="31.5"/>
		<text transform="matrix(1 0 0 1 1186.6042 184.9546)" class="st4 st8">D</text>
	</g>
	<g id="White_key_names_5_">
		<rect x="1338.6" y="162" class="st7" width="31.1" height="31.5"/>
		<text transform="matrix(1 0 0 1 1343.1394 184.9546)" class="st4 st8">B</text>
		<rect x="1369.7" y="162" class="st7" width="31.1" height="31.5"/>
		<text transform="matrix(1 0 0 1 1374.2395 184.9546)" class="st4 st8">C</text>
		<rect x="1276.4" y="162" class="st7" width="31.1" height="31.5"/>
		<text transform="matrix(1 0 0 1 1280.0293 184.9546)" class="st4 st8">G</text>
		<rect x="1307.5" y="162" class="st7" width="31.1" height="31.5"/>
		<text transform="matrix(1 0 0 1 1311.1293 184.9546)" class="st4 st8">A</text>
		<rect x="1245.2" y="162" class="st7" width="31.1" height="31.5"/>
		<text transform="matrix(1 0 0 1 1251.5686 184.9546)" class="st4 st8">F</text>
		<rect x="1494.2" y="162" class="st7" width="31.1" height="31.5"/>
		<text transform="matrix(1 0 0 1 1497.8793 184.9546)" class="st4 st8">G</text>
		<rect x="1525.3" y="162" class="st7" width="31.1" height="31.5"/>
		<text transform="matrix(1 0 0 1 1528.9794 184.9546)" class="st4 st8">A</text>
		<rect x="1432" y="162" class="st7" width="31.1" height="31.5"/>
		<text transform="matrix(1 0 0 1 1437.5162 184.9546)" class="st4 st8">E</text>
		<rect x="1463.1" y="162" class="st7" width="31.1" height="31.5"/>
		<text transform="matrix(1 0 0 1 1469.5186 184.9546)" class="st4 st8">F</text>
		<rect x="1400.8" y="162" class="st7" width="31.1" height="31.5"/>
		<text transform="matrix(1 0 0 1 1404.4792 184.9546)" class="st4 st8">D</text>
		<rect x="1556.4" y="162" class="st7" width="31.1" height="31.5"/>
		<text transform="matrix(1 0 0 1 1560.9399 184.9546)" class="st4 st8">B</text>
		<rect x="1587.4" y="162" class="st7" width="31.1" height="31.5"/>
		<text transform="matrix(1 0 0 1 1591.965 184.9546)" class="st4 st8">C</text>
	</g>
</g>
<g id="White_key_dots_1_" class="st1">
	<circle class="st9" cx="16.2" cy="177.3" r="6.8"/>
	<circle class="st9" cx="47.3" cy="177.3" r="6.8"/>
	<circle class="st9" cx="78.4" cy="177.3" r="6.8"/>
	<circle class="st9" cx="109.5" cy="177.3" r="6.8"/>
	<circle class="st9" cx="140.7" cy="177.3" r="6.8"/>
	<circle class="st9" cx="171.8" cy="177.3" r="6.8"/>
	<circle class="st9" cx="202.9" cy="177.3" r="6.8"/>
	<circle class="st9" cx="234" cy="177.3" r="6.8"/>
	<circle class="st9" cx="265" cy="177.3" r="6.8"/>
	<circle class="st9" cx="296.2" cy="177.3" r="6.8"/>
	<circle class="st9" cx="358.3" cy="177.3" r="6.8"/>
	<circle class="st9" cx="327.3" cy="177.3" r="6.8"/>
	<circle class="st9" cx="389.6" cy="177.3" r="6.8"/>
	<circle class="st9" cx="420.8" cy="177.3" r="6.8"/>
	<circle class="st9" cx="451.9" cy="177.3" r="6.8"/>
	<circle class="st9" cx="483" cy="177.3" r="6.8"/>
	<circle class="st9" cx="514.1" cy="177.3" r="6.8"/>
	<circle class="st9" cx="545.2" cy="177.3" r="6.8"/>
	<circle class="st9" cx="576.4" cy="177.3" r="6.8"/>
	<circle class="st9" cx="607.5" cy="177.3" r="6.8"/>
	<circle class="st9" cx="638.6" cy="177.3" r="6.8"/>
	<circle class="st9" cx="669.7" cy="177.3" r="6.8"/>
	<circle class="st9" cx="700.7" cy="177.3" r="6.8"/>
	<circle class="st9" cx="731.9" cy="177.3" r="6.8"/>
	<circle class="st9" cx="794" cy="177.3" r="6.8"/>
	<circle class="st9" cx="763" cy="177.3" r="6.8"/>
	<circle class="st9" cx="825.3" cy="177.3" r="6.8"/>
	<circle class="st9" cx="856.5" cy="177.3" r="6.8"/>
	<circle class="st9" cx="887.6" cy="177.3" r="6.8"/>
	<circle class="st9" cx="918.7" cy="177.3" r="6.8"/>
	<circle class="st9" cx="949.8" cy="177.3" r="6.8"/>
	<circle class="st9" cx="980.9" cy="177.3" r="6.8"/>
	<circle class="st9" cx="1012.1" cy="177.3" r="6.8"/>
	<circle class="st9" cx="1043.2" cy="177.3" r="6.8"/>
	<circle class="st9" cx="1074.3" cy="177.3" r="6.8"/>
	<circle class="st9" cx="1105.4" cy="177.3" r="6.8"/>
	<circle class="st9" cx="1136.4" cy="177.3" r="6.8"/>
	<circle class="st9" cx="1167.6" cy="177.3" r="6.8"/>
	<circle class="st9" cx="1229.7" cy="177.3" r="6.8"/>
	<circle class="st9" cx="1198.7" cy="177.3" r="6.8"/>
	<circle class="st9" cx="1261.5" cy="177.3" r="6.8"/>
	<circle class="st9" cx="1292.7" cy="177.3" r="6.8"/>
	<circle class="st9" cx="1323.8" cy="177.3" r="6.8"/>
	<circle class="st9" cx="1354.9" cy="177.3" r="6.8"/>
	<circle class="st9" cx="1386" cy="177.3" r="6.8"/>
	<circle class="st9" cx="1417.1" cy="177.3" r="6.8"/>
	<circle class="st9" cx="1448.3" cy="177.3" r="6.8"/>
	<circle class="st9" cx="1479.4" cy="177.3" r="6.8"/>
	<circle class="st9" cx="1510.5" cy="177.3" r="6.8"/>
	<circle class="st9" cx="1541.6" cy="177.3" r="6.8"/>
	<circle class="st9" cx="1572.6" cy="177.3" r="6.8"/>
	<circle class="st9" cx="1603.8" cy="177.3" r="6.8"/>
</g>
<g id="Black_key_dots" class="st1">
	<circle class="st3" cx="91.5" cy="114.4" r="6.8"/>
	<circle class="st3" cx="128.3" cy="114.4" r="6.8"/>
	<circle class="st3" cx="35.2" cy="114.4" r="6.8"/>
	<circle class="st3" cx="182.3" cy="114.4" r="6.8"/>
	<circle class="st3" cx="217.7" cy="114.4" r="6.8"/>
	<circle class="st3" cx="252.9" cy="114.4" r="6.8"/>
	<circle class="st3" cx="309.2" cy="114.4" r="6.8"/>
	<circle class="st3" cx="346" cy="114.4" r="6.8"/>
	<circle class="st3" cx="399.8" cy="114.4" r="6.8"/>
	<circle class="st3" cx="526.8" cy="114.4" r="6.8"/>
	<circle class="st3" cx="563.6" cy="114.4" r="6.8"/>
	<circle class="st3" cx="435.1" cy="114.4" r="6.8"/>
	<circle class="st3" cx="470.5" cy="114.4" r="6.8"/>
	<circle class="st3" cx="617.6" cy="114.4" r="6.8"/>
	<circle class="st3" cx="653" cy="114.4" r="6.8"/>
	<circle class="st3" cx="688.2" cy="114.4" r="6.8"/>
	<circle class="st3" cx="744.5" cy="114.4" r="6.8"/>
	<circle class="st3" cx="781.3" cy="114.4" r="6.8"/>
	<circle class="st3" cx="835.7" cy="114.4" r="6.8"/>
	<circle class="st3" cx="962.7" cy="114.4" r="6.8"/>
	<circle class="st3" cx="999.5" cy="114.4" r="6.8"/>
	<circle class="st3" cx="871" cy="114.4" r="6.8"/>
	<circle class="st3" cx="906.4" cy="114.4" r="6.8"/>
	<circle class="st3" cx="1053.5" cy="114.4" r="6.8"/>
	<circle class="st3" cx="1088.9" cy="114.4" r="6.8"/>
	<circle class="st3" cx="1124.1" cy="114.4" r="6.8"/>
	<circle class="st3" cx="1180.3" cy="114.4" r="6.8"/>
	<circle class="st3" cx="1217.1" cy="114.4" r="6.8"/>
	<circle class="st3" cx="1271" cy="114.4" r="6.8"/>
	<circle class="st3" cx="1398" cy="114.4" r="6.8"/>
	<circle class="st3" cx="1434.8" cy="114.4" r="6.8"/>
	<circle class="st3" cx="1306.3" cy="114.4" r="6.8"/>
	<circle class="st3" cx="1341.7" cy="114.4" r="6.8"/>
	<circle class="st3" cx="1488.8" cy="114.4" r="6.8"/>
	<circle class="st3" cx="1524.2" cy="114.4" r="6.8"/>
	<circle class="st3" cx="1559.4" cy="114.4" r="6.8"/>
</g>
<g id="Arrows" class="st1">
	<g class="st10">
		<g>
			<line class="st11" x1="887.5" y1="221.3" x2="887.3" y2="282.7"/>
			<g>
				<polygon points="876.4,229.7 887.5,225 898.6,229.8 887.6,203.4 				"/>
			</g>
		</g>
	</g>
</g>
<g id="Current_items">
	<g>
		<g>
			<line class="st11" x1="732" y1="221.3" x2="732" y2="282.7"/>
			<g>
				<polygon points="721,229.7 732.1,225 743.2,229.8 732.2,203.4 				"/>
			</g>
		</g>
	</g>
	<rect x="618" y="292.7" class="st7" width="228.1" height="53.5"/>
	<text transform="matrix(1 0 0 1 635.9973 328.814)" class="st4 st12">middle C</text>
</g>
</svg>
